<svg width="393" height="124" viewBox="0 0 393 124" fill="none" xmlns="http://www.w3.org/2000/svg">
<g filter="url(#filter0_f_4_20)">
<rect x="26" y="30" width="350" height="64" rx="8" fill="#7D05FF" fill-opacity="0.2"/>
</g>
<rect x="25.5" y="29.5" width="351" height="65" rx="8.5" fill="url(#paint0_linear_4_20)" stroke="url(#paint1_linear_4_20)"/>
<path d="M80.9631 70H77.5881L83.733 52.5455H87.6364L93.7898 70H90.4148L85.7528 56.125H85.6165L80.9631 70ZM81.0739 63.1562H90.2784V65.696H81.0739V63.1562ZM106.962 58.1193C106.82 57.6591 106.624 57.2472 106.374 56.8835C106.129 56.5142 105.834 56.1989 105.487 55.9375C105.146 55.6761 104.754 55.4801 104.311 55.3494C103.868 55.2131 103.385 55.1449 102.862 55.1449C101.925 55.1449 101.089 55.3807 100.357 55.8523C99.6236 56.3239 99.0469 57.017 98.6264 57.9318C98.2116 58.8409 98.0043 59.9489 98.0043 61.2557C98.0043 62.5739 98.2116 63.6903 98.6264 64.6051C99.0412 65.5199 99.6179 66.2159 100.357 66.6932C101.095 67.1648 101.953 67.4006 102.93 67.4006C103.817 67.4006 104.584 67.2301 105.232 66.8892C105.885 66.5483 106.388 66.0653 106.74 65.4403C107.092 64.8097 107.268 64.071 107.268 63.2244L107.984 63.3352H103.246V60.8636H110.328V62.9602C110.328 64.4545 110.01 65.7472 109.374 66.8381C108.737 67.929 107.862 68.7699 106.749 69.3608C105.635 69.946 104.357 70.2386 102.913 70.2386C101.305 70.2386 99.8935 69.8778 98.6776 69.1562C97.4673 68.429 96.5213 67.3977 95.8395 66.0625C95.1634 64.7216 94.8253 63.1307 94.8253 61.2898C94.8253 59.8807 95.0241 58.6222 95.4219 57.5142C95.8253 56.4062 96.3878 55.4659 97.1094 54.6932C97.831 53.9148 98.6776 53.3239 99.6491 52.9205C100.621 52.5114 101.678 52.3068 102.82 52.3068C103.786 52.3068 104.686 52.4489 105.521 52.733C106.357 53.0114 107.098 53.4091 107.746 53.9261C108.399 54.4432 108.936 55.0568 109.357 55.767C109.777 56.4773 110.053 57.2614 110.183 58.1193H106.962ZM113.386 70V52.5455H124.738V55.196H116.548V59.9347H124.15V62.5852H116.548V67.3494H124.806V70H113.386ZM142.308 52.5455V70H139.495L131.271 58.1108H131.126V70H127.964V52.5455H130.793L139.009 64.4432H139.163V52.5455H142.308ZM151.668 70H145.753V52.5455H151.787C153.52 52.5455 155.009 52.8949 156.253 53.5938C157.503 54.2869 158.463 55.2841 159.134 56.5852C159.804 57.8864 160.139 59.4432 160.139 61.2557C160.139 63.0739 159.801 64.6364 159.125 65.9432C158.455 67.25 157.486 68.2528 156.219 68.9517C154.957 69.6506 153.44 70 151.668 70ZM148.915 67.2642H151.514C152.73 67.2642 153.744 67.0426 154.557 66.5994C155.369 66.1506 155.98 65.483 156.389 64.5966C156.798 63.7045 157.003 62.5909 157.003 61.2557C157.003 59.9205 156.798 58.8125 156.389 57.9318C155.98 57.0455 155.375 56.3835 154.574 55.946C153.778 55.5028 152.79 55.2812 151.608 55.2812H148.915V67.2642ZM164.447 70H161.072L167.217 52.5455H171.121L177.274 70H173.899L169.237 56.125H169.101L164.447 70ZM164.558 63.1562H173.763V65.696H164.558V63.1562ZM179.573 70V52.5455H186.119C187.46 52.5455 188.585 52.7784 189.494 53.2443C190.408 53.7102 191.099 54.3636 191.565 55.2045C192.036 56.0398 192.272 57.0142 192.272 58.1278C192.272 59.2472 192.033 60.2187 191.556 61.0426C191.085 61.8608 190.388 62.4943 189.468 62.9432C188.548 63.3864 187.417 63.608 186.076 63.608H181.414V60.983H185.65C186.434 60.983 187.076 60.875 187.576 60.6591C188.076 60.4375 188.445 60.1165 188.684 59.696C188.928 59.2699 189.05 58.7472 189.05 58.1278C189.05 57.5085 188.928 56.9801 188.684 56.5426C188.44 56.0994 188.067 55.7642 187.567 55.5369C187.067 55.304 186.423 55.1875 185.633 55.1875H182.735V70H179.573ZM188.59 62.0909L192.911 70H189.383L185.138 62.0909H188.59ZM212.138 52.5455H215.3V63.9489C215.3 65.1989 215.005 66.2983 214.414 67.2472C213.829 68.196 213.005 68.9375 211.942 69.4716C210.88 70 209.638 70.2642 208.218 70.2642C206.792 70.2642 205.548 70 204.485 69.4716C203.423 68.9375 202.599 68.196 202.013 67.2472C201.428 66.2983 201.136 65.1989 201.136 63.9489V52.5455H204.298V63.6847C204.298 64.4119 204.457 65.0597 204.775 65.6278C205.099 66.196 205.553 66.642 206.138 66.9659C206.724 67.2841 207.417 67.4432 208.218 67.4432C209.019 67.4432 209.712 67.2841 210.298 66.9659C210.888 66.642 211.343 66.196 211.661 65.6278C211.979 65.0597 212.138 64.4119 212.138 63.6847V52.5455ZM218.737 52.5455H222.607L227.788 65.1932H227.993L233.175 52.5455H237.044V70H234.01V58.0085H233.848L229.024 69.9489H226.757L221.933 57.983H221.771V70H218.737V52.5455ZM242.729 70H239.354L245.499 52.5455H249.402L255.555 70H252.18L247.518 56.125H247.382L242.729 70ZM242.839 63.1562H252.044V65.696H242.839V63.1562ZM278.748 58.4347H275.56C275.469 57.9119 275.302 57.4489 275.058 57.0455C274.813 56.6364 274.509 56.2898 274.146 56.0057C273.782 55.7216 273.367 55.5085 272.901 55.3665C272.441 55.2188 271.944 55.1449 271.41 55.1449C270.461 55.1449 269.62 55.3835 268.887 55.8608C268.154 56.3324 267.58 57.0256 267.165 57.9403C266.751 58.8494 266.543 59.9602 266.543 61.2727C266.543 62.608 266.751 63.733 267.165 64.6477C267.586 65.5568 268.16 66.2443 268.887 66.7102C269.62 67.1705 270.458 67.4006 271.401 67.4006C271.924 67.4006 272.413 67.3324 272.867 67.196C273.327 67.054 273.739 66.8466 274.103 66.5739C274.472 66.3011 274.782 65.9659 275.032 65.5682C275.288 65.1705 275.464 64.7159 275.56 64.2045L278.748 64.2216C278.629 65.0511 278.37 65.8295 277.972 66.5568C277.58 67.2841 277.066 67.9261 276.43 68.483C275.793 69.0341 275.049 69.4659 274.197 69.7784C273.344 70.0852 272.398 70.2386 271.359 70.2386C269.825 70.2386 268.455 69.8835 267.251 69.1733C266.046 68.4631 265.097 67.4375 264.404 66.0966C263.711 64.7557 263.364 63.1477 263.364 61.2727C263.364 59.392 263.714 57.7841 264.413 56.4489C265.112 55.108 266.063 54.0824 267.268 53.3722C268.472 52.6619 269.836 52.3068 271.359 52.3068C272.33 52.3068 273.234 52.4432 274.069 52.7159C274.904 52.9886 275.648 53.3892 276.302 53.9176C276.955 54.4403 277.492 55.0824 277.913 55.8438C278.339 56.5994 278.617 57.4631 278.748 58.4347ZM283.674 70H280.299L286.444 52.5455H290.347L296.501 70H293.126L288.464 56.125H288.327L283.674 70ZM283.785 63.1562H292.989V65.696H283.785V63.1562ZM298.8 70V52.5455H301.962V67.3494H309.649V70H298.8ZM312.393 70V52.5455H315.555V67.3494H323.243V70H312.393Z" fill="white"/>
<defs>
<filter id="filter0_f_4_20" x="-4" y="0" width="410" height="124" filterUnits="userSpaceOnUse" color-interpolation-filters="sRGB">
<feFlood flood-opacity="0" result="BackgroundImageFix"/>
<feBlend mode="normal" in="SourceGraphic" in2="BackgroundImageFix" result="shape"/>
<feGaussianBlur stdDeviation="15" result="effect1_foregroundBlur_4_20"/>
</filter>
<linearGradient id="paint0_linear_4_20" x1="26" y1="62" x2="376" y2="62" gradientUnits="userSpaceOnUse">
<stop stop-color="#8908FF"/>
<stop offset="0.612725" stop-color="#48038F"/>
</linearGradient>
<linearGradient id="paint1_linear_4_20" x1="22" y1="54.5" x2="376" y2="54.5" gradientUnits="userSpaceOnUse">
<stop stop-color="white"/>
<stop offset="1" stop-color="#666666" stop-opacity="0"/>
</linearGradient>
</defs>
</svg>
